<svg xmlns="http://www.w3.org/2000/svg" xmlns:xlink="http://www.w3.org/1999/xlink" viewBox="0 0 220.51 186.22"><defs><style>.cls-1{fill:url(#radial-gradient);}.cls-2{fill:url(#linear-gradient);}.cls-3{fill:url(#linear-gradient-2);}.cls-4{fill:url(#linear-gradient-3);}.cls-5{fill:url(#radial-gradient-2);}.cls-6{fill:url(#radial-gradient-3);}.cls-7{fill:url(#linear-gradient-4);}.cls-8{fill:url(#radial-gradient-4);}.cls-9{fill:url(#radial-gradient-5);}.cls-10{fill:url(#radial-gradient-6);}.cls-11{fill:url(#linear-gradient-5);}.cls-12{fill:url(#radial-gradient-7);}.cls-13{fill:url(#radial-gradient-8);}.cls-14{fill:url(#radial-gradient-9);}.cls-15{fill:url(#radial-gradient-10);}.cls-16{fill:url(#radial-gradient-11);}.cls-17{fill:url(#radial-gradient-12);}.cls-18{fill:url(#radial-gradient-13);}.cls-19{fill:url(#radial-gradient-14);}.cls-20{fill:url(#radial-gradient-15);}.cls-21{fill:url(#linear-gradient-6);}.cls-22{fill:url(#radial-gradient-16);}</style><radialGradient id="radial-gradient" cx="58.48" cy="213.94" r="25.41" gradientTransform="matrix(0.98, -0.22, 0.22, 0.98, -37.97, -131.62)" gradientUnits="userSpaceOnUse"><stop offset="0" stop-color="#4a63ed"/><stop offset="0.22" stop-color="#4a56ed"/><stop offset="0.66" stop-color="#3936cc"/><stop offset="0.77" stop-color="#3433c5"/><stop offset="0.86" stop-color="#3231c5"/></radialGradient><linearGradient id="linear-gradient" x1="82.44" y1="29.53" x2="68.84" y2="73.31" gradientUnits="userSpaceOnUse"><stop offset="0" stop-color="#4768e8"/><stop offset="1" stop-color="#455ce3"/></linearGradient><linearGradient id="linear-gradient-2" x1="-677.29" y1="702.9" x2="-628.72" y2="702.9" gradientTransform="matrix(0.61, -0.79, 0.79, 0.61, -124.78, -828.74)" gradientUnits="userSpaceOnUse"><stop offset="0" stop-color="#4a75ed"/><stop offset="1" stop-color="#3f3bd6"/></linearGradient><linearGradient id="linear-gradient-3" x1="-81.03" y1="420.88" x2="30.44" y2="420.88" gradientTransform="translate(434.18 -149.9) rotate(50.47)" gradientUnits="userSpaceOnUse"><stop offset="0" stop-color="#424edd"/><stop offset="0.83" stop-color="#3f3bd6"/></linearGradient><radialGradient id="radial-gradient-2" cx="150.42" cy="270.27" r="16.28" gradientTransform="matrix(0.98, -0.22, 0.22, 0.98, -37.97, -131.62)" gradientUnits="userSpaceOnUse"><stop offset="0" stop-color="#4a56ed"/><stop offset="0.59" stop-color="#403cd7"/><stop offset="0.82" stop-color="#3433c8"/><stop offset="1" stop-color="#3231c5"/></radialGradient><radialGradient id="radial-gradient-3" cx="85.88" cy="171.11" r="13.95" gradientTransform="matrix(0.98, -0.22, 0.22, 0.98, -37.97, -131.62)" gradientUnits="userSpaceOnUse"><stop offset="0" stop-color="#58a1f5"/><stop offset="0.6" stop-color="#4a75ed"/><stop offset="1" stop-color="#4351df"/></radialGradient><linearGradient id="linear-gradient-4" x1="16.1" y1="346.51" x2="-9.86" y2="495.42" gradientTransform="translate(-134.97 -255.92) rotate(-36.24)" gradientUnits="userSpaceOnUse"><stop offset="0" stop-color="#4a81ed"/><stop offset="0.8" stop-color="#4149db"/></linearGradient><radialGradient id="radial-gradient-4" cx="19.32" cy="275.38" r="26.38" gradientTransform="matrix(0.98, -0.22, 0.22, 0.98, -37.97, -131.62)" gradientUnits="userSpaceOnUse"><stop offset="0" stop-color="#619cfa"/><stop offset="0.32" stop-color="#6187fa"/><stop offset="0.69" stop-color="#4a56ed"/><stop offset="0.88" stop-color="#3f3bd6"/></radialGradient><radialGradient id="radial-gradient-5" cx="-6.47" cy="503.22" r="70.94" gradientTransform="translate(-134.97 -255.92) rotate(-36.24)" gradientUnits="userSpaceOnUse"><stop offset="0.15" stop-color="#4a51ed"/><stop offset="0.34" stop-color="#4b8ce3"/><stop offset="0.71" stop-color="#fa0"/></radialGradient><radialGradient id="radial-gradient-6" cx="58.12" cy="429.59" r="42.78" gradientTransform="translate(-134.97 -255.92) rotate(-36.24)" gradientUnits="userSpaceOnUse"><stop offset="0" stop-color="#ffffa4"/><stop offset="0.22" stop-color="#fff699"/><stop offset="0.58" stop-color="#ffcf62"/><stop offset="0.83" stop-color="#ffac35"/><stop offset="1" stop-color="#ffa000"/></radialGradient><linearGradient id="linear-gradient-5" x1="-166.53" y1="487.83" x2="-112.44" y2="487.83" gradientTransform="translate(-205.45 -346.26) rotate(-46.23)" gradientUnits="userSpaceOnUse"><stop offset="0" stop-color="#ffa000"/><stop offset="0.17" stop-color="#ffac35"/><stop offset="0.42" stop-color="#ffcf62"/></linearGradient><radialGradient id="radial-gradient-7" cx="29.95" cy="451.73" r="27.65" gradientTransform="translate(17.2 -367.37) rotate(-14.05)" gradientUnits="userSpaceOnUse"><stop offset="0" stop-color="#fa0"/><stop offset="0.33" stop-color="#4b8ce3"/><stop offset="0.85" stop-color="#4a51ed"/></radialGradient><radialGradient id="radial-gradient-8" cx="48.19" cy="502.64" r="59.46" gradientTransform="translate(168.34 -393.65) rotate(5.21)" xlink:href="#radial-gradient-5"/><radialGradient id="radial-gradient-9" cx="43.78" cy="296.56" r="38.81" gradientTransform="matrix(0.98, -0.22, 0.22, 0.98, -37.97, -131.62)" gradientUnits="userSpaceOnUse"><stop offset="0" stop-color="#ffe97e"/><stop offset="0.49" stop-color="#ffaf3c"/><stop offset="0.83" stop-color="#ff7e53"/><stop offset="1" stop-color="#f72"/></radialGradient><radialGradient id="radial-gradient-10" cx="-0.39" cy="226.52" r="19.56" gradientTransform="matrix(0.98, -0.22, 0.22, 0.98, -37.97, -131.62)" gradientUnits="userSpaceOnUse"><stop offset="0" stop-color="#61cdfa"/><stop offset="0.32" stop-color="#5daff8"/><stop offset="0.69" stop-color="#4a75ed"/><stop offset="1" stop-color="#3f3bd6"/></radialGradient><radialGradient id="radial-gradient-11" cx="180.5" cy="264.29" r="26.38" gradientTransform="matrix(0.98, -0.22, 0.22, 0.98, -37.97, -131.62)" gradientUnits="userSpaceOnUse"><stop offset="0" stop-color="#61bdfa"/><stop offset="0.21" stop-color="#5daff8"/><stop offset="0.6" stop-color="#4a75ed"/><stop offset="1" stop-color="#3f3bd6"/></radialGradient><radialGradient id="radial-gradient-12" cx="120.15" cy="314.68" r="32.15" gradientTransform="matrix(0.98, -0.22, 0.22, 0.98, -37.97, -131.62)" gradientUnits="userSpaceOnUse"><stop offset="0.07" stop-color="#61e4fa"/><stop offset="0.46" stop-color="#5daff8"/><stop offset="0.83" stop-color="#4a75ed"/><stop offset="1" stop-color="#4457e1"/></radialGradient><radialGradient id="radial-gradient-13" cx="-740.89" cy="602.9" r="19.57" gradientTransform="matrix(-0.35, -0.94, 0.94, -0.35, -774.51, -454.94)" gradientUnits="userSpaceOnUse"><stop offset="0.29" stop-color="#fa0"/><stop offset="1" stop-color="#4b8ce3"/></radialGradient><radialGradient id="radial-gradient-14" cx="-372.72" cy="-631.85" r="59.46" gradientTransform="translate(-597.11 359.66) rotate(95.21)" xlink:href="#radial-gradient-5"/><radialGradient id="radial-gradient-15" cx="49.19" cy="388.03" r="33.7" xlink:href="#radial-gradient-6"/><linearGradient id="linear-gradient-6" x1="47.53" y1="48.05" x2="59.33" y2="60.79" gradientUnits="userSpaceOnUse"><stop offset="0" stop-color="#fa0"/><stop offset="0.66" stop-color="#4b8ce3"/><stop offset="0.85" stop-color="#4a51ed"/></linearGradient><radialGradient id="radial-gradient-16" cx="3107.33" cy="630.98" r="32.64" gradientTransform="matrix(0.59, 0.81, -0.81, 0.59, -1308.87, -2853.79)" gradientUnits="userSpaceOnUse"><stop offset="0" stop-color="#ffffa4"/><stop offset="0.25" stop-color="#fff699"/><stop offset="0.58" stop-color="#ffcf62"/><stop offset="0.83" stop-color="#ffac35"/><stop offset="1" stop-color="#ffa000"/></radialGradient></defs><title>Asset 6</title><g id="Layer_2" data-name="Layer 2"><g id="Layer_1-2" data-name="Layer 1"><circle class="cls-1" cx="70.46" cy="70.19" r="19.07"/><path class="cls-2" d="M70.16,64.23,86.47,13A1.25,1.25,0,0,1,88,12.18h0a1.25,1.25,0,0,1,.81,1.57L72.54,65A1.25,1.25,0,0,1,71,65.8h0A1.25,1.25,0,0,1,70.16,64.23Z"/><rect class="cls-3" x="29.68" y="87.54" width="2.05" height="60.92" rx="1.02" transform="translate(-64.94 42.38) rotate(-37.09)"/><rect class="cls-4" x="92.35" y="26.55" width="2.24" height="143.86" rx="1.12" transform="translate(-10.21 186.15) rotate(-86.71)"/><circle class="cls-5" cx="172.48" cy="102.81" r="14.99"/><circle class="cls-6" cx="85.14" cy="20.07" r="13.95"/><path class="cls-7" d="M155.07,159.07h0a1.19,1.19,0,0,1-1.59-.53L85.82,23.31a1.2,1.2,0,0,1,.54-1.6h0a1.19,1.19,0,0,1,1.59.53l67.66,135.24A1.19,1.19,0,0,1,155.07,159.07Z"/><circle class="cls-8" cx="45.83" cy="138.91" r="19.8"/><path class="cls-9" d="M154,160.41,68.84,170a1.24,1.24,0,0,1-1.23-1.84l75-135.68a1.25,1.25,0,0,0-.93-1.84l4-2a1.25,1.25,0,0,1,.93,1.84L72.13,165.11A1.26,1.26,0,0,0,73.37,167l80.37-9a1.25,1.25,0,0,1,1.38,1.1h0A1.25,1.25,0,0,1,154,160.41Z"/><path class="cls-10" d="M67.61,168.14l75-135.68a1.25,1.25,0,0,0-.93-1.84l4-2a1.25,1.25,0,0,1,.93,1.84L72.13,165.11A1.26,1.26,0,0,0,73.37,167l-5.76,1.18C68.29,168.06,67.12,169,67.61,168.14Z"/><path class="cls-11" d="M66.58,144.07h0a1.18,1.18,0,0,1-1.5-.72l-31.72-102a1.17,1.17,0,0,1,.71-1.5h0a1.17,1.17,0,0,1,1.5.71l31.73,102A1.18,1.18,0,0,1,66.58,144.07Z"/><rect class="cls-12" x="154.71" y="24.74" width="2.5" height="77.65" rx="1.25" transform="translate(-12.34 69.92) rotate(-24.34)"/><rect class="cls-13" x="172.14" y="19.82" width="2.5" height="89.01" rx="1.25" transform="translate(4.61 139.91) rotate(-44.48)"/><circle class="cls-14" cx="76.59" cy="157.08" r="29.13"/><circle class="cls-15" cx="14.69" cy="93.98" r="14.68"/><circle class="cls-16" cx="200.7" cy="92.9" r="19.8"/><circle class="cls-17" cx="153.86" cy="156.57" r="24.13"/><path class="cls-18" d="M78.48,21.4h0a1.25,1.25,0,0,1-1.09,1.38l-51.85,7a1.25,1.25,0,0,1-1.39-1.09h0a1.25,1.25,0,0,1,1.1-1.39l51.85-7A1.25,1.25,0,0,1,78.48,21.4Z"/><rect class="cls-19" x="68.44" y="47.27" width="89.01" height="2.5" rx="1.25" transform="translate(-9.5 59.42) rotate(-28.33)"/><circle class="cls-20" cx="141.97" cy="33.7" r="33.7"/><path class="cls-21" d="M60.17,61.63h0a1.25,1.25,0,0,1-1.77-.1L42.28,44.31a1.24,1.24,0,0,1,.1-1.76h0a1.24,1.24,0,0,1,1.76.1L60.27,59.87A1.26,1.26,0,0,1,60.17,61.63Z"/><circle class="cls-22" cx="32.47" cy="28.77" r="24.49"/></g></g></svg>