<?xml version="1.0" standalone="no"?>
<!DOCTYPE svg PUBLIC "-//W3C//DTD SVG 20010904//EN"
 "http://www.w3.org/TR/2001/REC-SVG-20010904/DTD/svg10.dtd">
<svg version="1.0" xmlns="http://www.w3.org/2000/svg"
 width="832.000000pt" height="832.000000pt" viewBox="0 0 832.000000 832.000000"
 preserveAspectRatio="xMidYMid meet">
<metadata>
Created by potrace 1.14, written by Peter Selinger 2001-2017
</metadata>
<g transform="translate(0.000000,832.000000) scale(0.100000,-0.100000)"
fill="#000000" stroke="none">
<path d="M3380 8305 c-30 -8 -69 -16 -85 -19 -119 -20 -410 -111 -584 -182
-192 -80 -450 -204 -576 -277 -405 -235 -815 -589 -1127 -972 -267 -329 -531
-804 -668 -1202 -89 -257 -166 -584 -195 -828 -4 -27 -8 -60 -10 -73 -20 -122
-27 -605 -12 -782 76 -872 397 -1653 956 -2325 92 -109 306 -326 416 -420 44
-37 91 -77 105 -89 239 -204 716 -494 1020 -621 180 -76 556 -186 784 -231 92
-18 138 -25 280 -44 251 -33 706 -35 958 -4 755 92 1418 358 2013 809 72 54
132 101 135 104 3 3 43 40 90 81 520 459 920 1059 1148 1722 46 132 124 416
137 498 4 29 11 60 20 100 1 3 5 30 9 60 4 30 9 67 12 83 5 25 3 27 -30 27
-38 0 -41 -4 -51 -85 -16 -128 -79 -387 -141 -578 -243 -744 -699 -1396 -1326
-1894 -584 -464 -1356 -766 -2121 -830 -120 -10 -547 -10 -661 0 -144 13 -266
29 -362 48 -28 5 -64 12 -80 15 -24 4 -106 23 -176 40 -10 2 -26 6 -35 8 -103
23 -334 100 -475 157 -357 145 -680 331 -973 560 -152 118 -162 127 -323 284
-458 444 -789 978 -994 1600 -71 217 -137 512 -163 735 -4 30 -9 66 -11 80
-23 147 -23 705 0 827 2 10 7 45 10 78 4 33 9 67 11 75 2 8 6 38 10 65 28 222
138 607 250 871 53 125 179 379 219 442 14 23 26 44 26 47 0 10 120 196 184
285 403 564 937 1003 1581 1297 188 86 545 209 685 236 14 2 77 16 140 31 133
31 160 49 160 107 0 81 -67 112 -180 84z m105 -80 c0 -16 -13 -22 -80 -37
-570 -125 -1022 -316 -1475 -622 -305 -206 -626 -505 -866 -806 -272 -341
-544 -838 -666 -1215 -43 -133 -110 -386 -124 -465 -2 -14 -6 -34 -9 -46 -3
-12 -7 -39 -10 -60 -3 -21 -11 -66 -17 -99 -5 -33 -12 -78 -14 -100 -2 -22 -6
-53 -9 -70 -11 -74 -20 -244 -20 -407 0 -97 -4 -174 -8 -171 -8 5 -2 425 7
503 2 19 6 67 10 105 20 214 97 571 175 811 166 509 468 1031 827 1428 245
272 491 485 770 668 447 293 881 475 1414 592 80 17 95 16 95 -9z m-3287
-4182 c1 -38 -1 -63 -3 -58 -7 20 -12 125 -5 125 4 0 7 -30 8 -67z m9 -85 c0
-7 3 -49 7 -93 4 -43 5 -77 2 -74 -3 2 -8 34 -11 69 -3 36 -8 75 -11 88 -2 12
-1 22 4 22 5 0 9 -6 9 -12z m21 -229 c-3 -33 -4 -33 -8 8 -3 23 -2 39 3 34 5
-5 7 -24 5 -42z m20 -124 c0 -16 -2 -15 -8 5 -11 34 -11 60 0 35 5 -11 8 -29
8 -40z m10 -56 c-3 -8 -7 -3 -11 10 -4 17 -3 21 5 13 5 -5 8 -16 6 -23z m9
-71 c-3 -7 -5 -2 -5 12 0 14 2 19 5 13 2 -7 2 -19 0 -25z m10 -40 c-3 -8 -6
-5 -6 6 -1 11 2 17 5 13 3 -3 4 -12 1 -19z m40 -160 c-3 -8 -6 -5 -6 6 -1 11
2 17 5 13 3 -3 4 -12 1 -19z"/>
<path d="M3958 8025 c-1 -2 -32 -6 -68 -10 -36 -4 -76 -9 -90 -10 -14 -2 -45
-6 -70 -9 -25 -3 -83 -12 -130 -20 -47 -9 -90 -16 -97 -16 -6 0 -9 -9 -6 -21
6 -21 21 -22 116 -3 12 2 47 6 77 10 30 3 65 7 78 9 146 24 637 25 793 0 13
-2 50 -6 83 -10 265 -30 620 -123 891 -232 598 -242 1072 -595 1515 -1129 9
-11 56 -75 104 -141 282 -394 488 -858 598 -1347 30 -138 35 -151 62 -167 16
-9 36 -15 45 -12 71 22 84 51 64 138 -8 33 -17 71 -19 85 -10 55 -48 182 -95
322 -435 1299 -1555 2268 -2897 2507 -92 17 -195 33 -229 36 -35 4 -75 9 -90
12 -32 5 -630 13 -635 8z"/>
<path d="M2765 7801 c-676 -272 -1296 -776 -1706 -1388 -193 -287 -339 -582
-448 -908 -48 -143 -123 -424 -135 -510 -4 -22 -11 -65 -16 -95 -34 -194 -45
-341 -45 -605 0 -190 10 -419 20 -435 1 -3 6 -32 9 -65 6 -50 37 -229 52 -297
30 -137 101 -390 124 -443 4 -11 25 -65 46 -120 241 -642 692 -1245 1239
-1657 389 -292 801 -496 1267 -628 78 -22 151 -42 162 -45 195 -39 394 -71
531 -83 162 -14 691 -5 748 13 7 2 35 6 62 9 179 20 499 93 700 161 487 164
945 428 1310 755 77 69 282 276 336 339 30 35 59 69 66 76 40 41 221 293 288
401 149 239 297 557 386 825 65 197 133 499 154 684 3 28 8 64 10 80 16 129
27 470 17 523 -2 12 -12 22 -21 22 -14 0 -17 -15 -17 -117 0 -120 -11 -352
-18 -388 -2 -11 -7 -47 -10 -80 -60 -533 -279 -1116 -599 -1595 -144 -215
-258 -352 -461 -555 -556 -555 -1238 -903 -2026 -1034 -195 -32 -347 -44 -575
-45 -145 0 -355 9 -401 18 -11 2 -46 7 -79 10 -33 4 -67 9 -75 11 -8 2 -33 6
-55 10 -196 29 -462 101 -685 185 -132 49 -135 51 -293 124 -271 125 -614 352
-845 557 -593 524 -1010 1245 -1167 2014 -37 182 -47 251 -70 500 -7 66 -7
454 -1 498 3 15 7 60 11 100 6 65 10 96 31 232 36 240 108 499 211 760 366
930 1105 1669 2043 2045 58 24 110 50 115 59 36 58 12 114 -55 127 -9 2 -69
-18 -135 -45z"/>
<path d="M4029 7746 c-2 -2 -40 -6 -85 -10 -82 -6 -187 -19 -284 -36 -30 -5
-71 -12 -90 -15 -128 -21 -567 -150 -593 -174 -4 -4 -5 -15 -2 -23 6 -14 15
-13 78 9 40 13 119 38 177 54 89 26 141 38 265 65 50 10 135 24 185 30 30 3
58 8 61 10 3 1 43 6 90 9 46 4 100 9 119 11 46 5 384 5 435 0 22 -2 74 -7 115
-11 618 -55 1250 -309 1755 -706 176 -139 386 -342 500 -484 22 -27 43 -52 46
-55 3 -3 39 -50 80 -105 155 -209 292 -450 399 -704 34 -80 69 -150 78 -157
22 -17 72 -17 94 0 40 30 40 62 3 152 -45 109 -140 297 -206 410 -386 660
-968 1171 -1664 1462 -186 78 -476 170 -615 195 -52 10 -106 20 -125 24 -11 2
-36 6 -55 8 -19 3 -44 7 -55 10 -11 2 -49 7 -85 10 -36 4 -76 9 -90 12 -30 6
-525 15 -531 9z"/>
<path d="M4059 7466 c-2 -2 -44 -6 -94 -10 -438 -31 -986 -207 -1352 -435 -39
-25 -42 -29 -28 -41 14 -12 20 -12 38 0 198 124 658 298 907 343 100 19 152
27 195 33 28 3 58 8 68 10 98 18 503 25 642 10 407 -43 737 -134 1073 -298
526 -254 964 -647 1271 -1138 62 -99 74 -110 115 -110 37 1 62 18 75 52 13 34
-14 86 -115 228 -478 670 -1167 1123 -1962 1290 -135 28 -162 32 -272 45 -30
4 -68 9 -85 11 -35 6 -471 15 -476 10z"/>
<path d="M2402 7317 c-20 -11 -87 -52 -147 -92 -572 -377 -1038 -942 -1300
-1575 -109 -262 -205 -600 -229 -805 -4 -27 -9 -61 -11 -75 -6 -26 -8 -42 -22
-185 -15 -149 -6 -684 11 -714 2 -3 6 -28 10 -56 5 -43 26 -168 41 -245 15
-79 72 -283 111 -397 101 -301 259 -618 432 -868 51 -73 178 -243 192 -255 3
-3 32 -36 65 -75 103 -120 301 -311 435 -418 134 -107 303 -227 320 -227 5 0
10 -4 10 -10 0 -5 4 -10 8 -10 5 0 47 -23 93 -51 183 -110 521 -260 719 -319
41 -12 95 -28 120 -35 40 -13 104 -28 165 -41 11 -2 43 -8 70 -14 88 -18 200
-36 275 -45 247 -28 656 -25 855 5 33 5 80 12 105 14 25 3 56 8 70 11 14 3 39
8 55 11 403 73 862 259 1235 502 107 70 233 160 290 208 509 431 828 869 1058
1449 81 205 161 490 188 673 3 20 7 50 10 67 42 257 50 633 19 900 -9 78 -15
120 -19 141 -2 12 -7 39 -10 60 -4 22 -11 65 -18 97 -11 58 -11 59 -41 53 -17
-3 -32 -8 -34 -10 -2 -2 5 -55 16 -117 37 -213 46 -321 46 -569 0 -113 -3
-245 -7 -293 -30 -347 -128 -740 -261 -1037 -200 -450 -409 -762 -722 -1075
-439 -438 -968 -738 -1580 -895 -63 -16 -134 -32 -157 -35 -24 -4 -45 -8 -48
-10 -3 -2 -30 -6 -60 -10 -30 -4 -57 -8 -60 -10 -3 -1 -36 -6 -73 -10 -37 -3
-78 -9 -90 -12 -37 -8 -508 -11 -592 -3 -246 24 -421 54 -615 106 -1221 329
-2162 1334 -2419 2584 -22 109 -31 156 -37 214 -3 23 -7 52 -9 66 -10 55 -19
233 -19 365 1 147 11 392 18 403 2 4 7 34 11 67 29 257 143 656 265 925 181
401 413 729 734 1040 174 168 421 357 603 461 74 42 93 104 48 157 -32 38 -75
45 -123 19z m73 -67 c10 -17 -9 -33 -101 -90 -77 -47 -311 -212 -324 -229 -3
-3 -25 -22 -50 -42 -86 -70 -220 -198 -320 -305 -428 -462 -718 -1029 -839
-1639 -16 -82 -33 -177 -36 -210 -4 -33 -8 -71 -11 -85 -19 -114 -25 -483 -11
-660 9 -110 38 -314 53 -380 3 -14 8 -36 11 -50 10 -58 25 -119 44 -184 12
-38 22 -76 24 -85 13 -66 125 -359 184 -480 17 -36 29 -67 26 -69 -2 -3 -13
15 -24 39 -10 24 -35 79 -54 122 -80 174 -184 490 -213 647 -3 14 -9 41 -14
60 -5 19 -11 53 -15 75 -3 22 -10 69 -16 105 -6 36 -13 85 -15 110 -3 25 -8
83 -13 130 -9 95 -7 468 3 545 4 28 14 100 22 160 16 123 22 159 30 195 3 14
8 39 11 55 16 110 109 417 187 615 153 392 399 771 706 1085 130 134 273 263
365 331 22 16 42 32 45 36 14 18 307 208 322 208 9 0 20 -5 23 -10z m-1315
-4560 c11 -22 18 -40 15 -40 -2 0 -14 18 -25 40 -11 22 -18 40 -15 40 2 0 14
-18 25 -40z m71 -132 c10 -21 17 -38 15 -38 -5 0 -56 90 -56 99 0 8 17 -17 41
-61z m44 -74 c9 -15 12 -23 6 -20 -11 7 -35 46 -28 46 3 0 12 -12 22 -26z m50
-80 c9 -15 12 -23 6 -20 -11 7 -35 46 -28 46 3 0 12 -12 22 -26z m56 -81 c13
-16 12 -17 -3 -4 -10 7 -18 15 -18 17 0 8 8 3 21 -13z"/>
<path d="M4088 7185 c-2 -2 -43 -6 -93 -10 -49 -3 -101 -8 -115 -10 -60 -8
-120 -18 -190 -31 -41 -9 -88 -18 -105 -21 -99 -17 -347 -99 -500 -166 -246
-106 -547 -293 -714 -444 -44 -39 -51 -50 -40 -60 11 -8 40 9 136 81 288 217
626 381 968 471 140 37 148 39 206 49 19 3 61 10 94 16 33 6 92 14 130 18 93
9 513 9 595 -1 696 -84 1279 -377 1754 -881 118 -126 138 -136 190 -95 20 16
26 29 26 59 0 35 -8 47 -107 147 -208 210 -380 344 -624 486 -201 118 -503
244 -698 293 -81 20 -141 34 -166 39 -262 48 -326 55 -562 59 -100 2 -183 2
-185 1z"/>
<path d="M2069 6703 c-205 -181 -394 -400 -554 -643 -353 -535 -530 -1126
-529 -1770 0 -203 18 -438 39 -510 2 -8 6 -33 9 -55 13 -101 66 -308 118 -460
354 -1041 1211 -1830 2271 -2089 78 -20 171 -40 207 -45 36 -6 83 -13 105 -17
235 -37 602 -39 865 -5 111 15 131 18 284 52 431 95 850 289 1211 559 155 116
219 172 365 320 400 404 683 910 820 1465 32 128 66 315 74 405 3 30 8 87 12
125 7 79 7 359 0 450 -6 81 -16 176 -21 200 -2 11 -7 43 -10 70 -17 146 -89
421 -161 617 -32 87 -38 97 -55 88 -17 -10 -17 -13 8 -78 75 -198 145 -475
169 -672 3 -30 8 -63 10 -74 6 -33 17 -259 17 -346 0 -97 -12 -315 -18 -345
-2 -11 -7 -40 -10 -65 -3 -25 -7 -54 -9 -65 -2 -11 -7 -40 -11 -65 -43 -266
-152 -596 -286 -862 -425 -847 -1233 -1463 -2169 -1652 -79 -16 -101 -20 -190
-32 -85 -11 -88 -12 -205 -20 -190 -14 -430 -7 -600 17 -38 5 -86 12 -105 14
-109 14 -310 62 -450 107 -1102 355 -1926 1309 -2110 2443 -30 190 -34 246
-35 485 0 224 7 344 25 456 6 32 13 75 16 94 3 19 16 85 30 145 14 61 27 119
29 129 3 11 23 76 46 145 165 496 427 909 809 1277 41 39 89 84 107 98 52 43
59 92 20 134 -34 37 -76 30 -138 -25z"/>
<path d="M4167 6624 c-1 -1 -46 -4 -99 -8 -732 -45 -1437 -475 -1818 -1109
-45 -77 -51 -91 -38 -103 12 -12 23 1 85 94 263 396 657 708 1096 867 99 35
292 90 357 100 19 3 46 7 60 10 14 2 52 7 85 11 33 3 74 8 90 10 47 6 304 5
370 -2 87 -8 266 -38 307 -50 9 -3 27 -7 39 -9 109 -21 347 -113 506 -196 101
-53 125 -55 161 -14 48 56 22 101 -89 155 -162 79 -372 152 -545 189 -82 18
-111 23 -206 36 -69 10 -354 24 -361 19z"/>
<path d="M4108 6355 c-2 -2 -38 -6 -81 -10 -89 -7 -103 -10 -207 -31 -186 -38
-380 -107 -550 -197 -300 -159 -564 -400 -754 -687 -65 -98 -173 -312 -209
-416 l-26 -71 34 -10 c32 -10 34 -9 46 21 29 75 116 247 160 318 262 424 685
737 1159 858 73 19 95 23 174 35 21 4 48 9 60 12 38 10 390 12 461 2 115 -14
270 -48 368 -80 104 -35 145 -33 177 8 29 38 26 88 -7 122 -39 38 -248 92
-454 117 -47 6 -346 13 -351 9z m332 -79 c172 -24 175 -24 280 -50 121 -30
150 -42 150 -60 0 -28 -20 -27 -112 3 -212 67 -346 86 -608 86 -187 0 -276 -7
-340 -25 -19 -5 -41 -10 -49 -10 -68 0 173 48 281 56 46 4 84 8 86 9 5 5 267
-3 312 -9z"/>
<path d="M5612 6072 l-20 -28 60 -49 c147 -121 344 -352 451 -529 553 -915
403 -2051 -369 -2797 -273 -263 -567 -429 -927 -524 -229 -60 -357 -78 -577
-79 -107 0 -234 7 -330 19 -136 18 -355 78 -513 141 -449 181 -822 500 -1070
916 -150 252 -260 567 -291 838 -3 25 -8 67 -11 94 -7 55 -7 335 0 381 2 17 6
53 10 80 12 110 57 309 91 407 35 101 37 114 19 152 -28 58 -108 72 -150 26
-46 -51 -129 -391 -151 -620 -7 -81 -7 -335 0 -418 25 -262 92 -518 202 -766
112 -252 285 -500 488 -701 119 -117 146 -141 247 -217 248 -186 523 -316 831
-396 126 -33 162 -41 228 -49 25 -3 63 -8 86 -12 80 -15 311 -19 459 -8 131 9
185 18 337 52 199 45 418 128 593 223 84 46 281 175 327 214 14 13 61 52 103
88 89 75 225 219 307 326 263 344 429 757 476 1184 17 156 7 489 -19 625 -5
28 -12 64 -15 80 -2 17 -16 73 -29 125 -116 452 -372 865 -730 1176 -92 80
-90 79 -113 46z m-3544 -1004 c7 -9 3 -33 -14 -83 -74 -218 -117 -482 -117
-730 -1 -638 291 -1276 775 -1697 151 -132 332 -252 501 -333 51 -24 87 -44
82 -45 -23 -1 -257 123 -355 187 -499 330 -850 831 -981 1398 -26 113 -26 111
-33 165 -3 25 -8 54 -10 65 -22 116 -23 473 0 588 2 12 6 39 9 62 10 66 15 99
20 115 2 8 7 29 10 46 7 42 52 198 70 240 15 36 26 42 43 22z m1299 -2914 c-5
-5 -57 13 -57 20 0 3 14 0 31 -6 16 -6 28 -12 26 -14z m43 -14 c8 -5 11 -10 5
-10 -5 0 -17 5 -25 10 -8 5 -10 10 -5 10 6 0 17 -5 25 -10z"/>
<path d="M4099 6056 c-2 -2 -35 -6 -73 -10 -300 -28 -682 -192 -917 -392 -280
-240 -478 -547 -568 -883 -43 -159 -49 -206 -27 -214 19 -8 16 -14 50 114 172
647 702 1125 1356 1222 118 18 359 19 465 2 116 -18 155 1 155 74 0 31 -29 70
-52 72 -7 0 -22 3 -33 5 -24 6 -350 15 -356 10z"/>
<path d="M5139 6051 c-1 -6 -2 -15 -3 -20 -1 -6 40 -35 89 -66 405 -254 708
-643 844 -1086 29 -91 60 -225 67 -284 3 -27 10 -69 14 -92 8 -48 5 -401 -5
-453 -3 -19 -11 -62 -16 -95 -114 -665 -570 -1226 -1203 -1479 -100 -40 -269
-90 -346 -102 -253 -40 -500 -41 -700 -4 -333 61 -609 184 -865 385 -383 301
-636 739 -712 1235 -16 106 -22 369 -11 465 23 189 19 212 -39 229 -39 11 -78
-11 -94 -51 -22 -59 -39 -400 -25 -513 3 -19 7 -62 11 -95 4 -33 15 -100 25
-150 130 -625 535 -1152 1098 -1430 168 -83 398 -161 532 -181 19 -3 42 -7 50
-9 48 -14 159 -20 340 -20 227 1 273 5 440 42 741 163 1333 729 1529 1463 17
66 24 98 46 210 20 103 26 399 11 545 -4 44 -9 82 -11 85 -2 3 -6 26 -10 50
-10 73 -62 260 -99 356 -148 388 -422 733 -766 961 -109 73 -190 117 -191 104z"/>
<path d="M6107 6003 c-11 -10 -8 -18 14 -44 157 -179 333 -461 418 -674 18
-44 36 -89 41 -100 13 -29 66 -200 84 -270 27 -107 46 -213 64 -353 15 -120 7
-522 -12 -632 -3 -14 -7 -42 -10 -62 -3 -21 -10 -57 -15 -80 -6 -24 -12 -54
-14 -68 -27 -146 -124 -405 -225 -600 -297 -575 -809 -1016 -1427 -1226 -747
-255 -1551 -149 -2210 291 -68 45 -130 89 -138 96 -8 8 -32 28 -53 44 -113 87
-286 263 -393 400 -292 372 -475 833 -521 1315 -10 109 -10 355 1 445 4 39 11
90 13 115 3 25 10 70 16 100 6 30 13 70 16 89 10 63 83 298 124 402 23 57 68
155 101 218 32 63 59 125 59 137 0 12 -9 33 -21 48 -25 32 -87 37 -111 9 -55
-62 -225 -457 -253 -587 -2 -11 -13 -57 -24 -101 -11 -44 -22 -93 -25 -110
-32 -175 -35 -197 -43 -310 -12 -172 -7 -392 13 -546 3 -24 17 -100 30 -169
82 -414 248 -776 512 -1120 69 -89 298 -324 391 -400 211 -175 488 -335 753
-436 86 -33 294 -95 363 -109 38 -7 179 -32 225 -39 163 -26 470 -26 680 0 54
6 269 49 325 64 441 120 837 346 1154 659 145 143 195 200 299 345 218 300
386 687 446 1026 20 116 25 149 33 220 10 83 10 454 1 545 -24 228 -88 486
-177 710 -31 77 -176 365 -189 375 -4 3 -13 16 -20 30 -37 73 -259 359 -278
360 -6 0 -14 -3 -17 -7z"/>
<path d="M4726 5905 c-9 -34 -3 -41 42 -56 118 -38 301 -140 433 -240 340
-259 590 -688 635 -1092 3 -29 7 -63 10 -77 17 -107 -2 -381 -37 -525 -5 -22
-12 -49 -14 -59 -8 -36 -37 -121 -51 -153 -8 -17 -14 -34 -14 -38 0 -13 -98
-203 -135 -261 -227 -355 -584 -610 -1000 -713 -44 -11 -105 -22 -135 -26 -30
-3 -73 -8 -95 -11 -49 -7 -252 -7 -320 0 -253 26 -523 124 -738 267 -107 72
-135 96 -263 225 -190 191 -331 439 -400 704 -14 52 -27 109 -29 125 -3 17 -9
57 -14 90 -5 33 -9 98 -9 144 0 67 -4 89 -19 110 -42 57 -102 63 -149 16 -23
-23 -25 -32 -23 -108 1 -75 5 -110 24 -237 3 -25 17 -88 30 -140 141 -565 552
-1028 1098 -1236 85 -32 203 -66 276 -79 19 -3 37 -8 41 -10 3 -2 40 -7 81
-11 40 -3 77 -8 81 -11 9 -5 276 -4 308 1 14 2 48 7 75 10 371 41 745 225
1025 505 147 146 253 296 345 486 54 111 119 299 130 378 4 23 8 44 10 47 2 3
6 26 10 50 17 115 22 195 19 320 -4 183 -11 235 -50 392 -89 359 -284 672
-566 910 -28 24 -56 48 -62 53 -31 28 -171 118 -246 158 -90 48 -257 117 -283
117 -8 0 -18 -11 -21 -25z m-2206 -1688 c2 -215 64 -470 166 -683 26 -54 60
-118 75 -141 16 -23 29 -44 29 -47 0 -21 132 -179 229 -276 228 -226 500 -379
792 -446 39 -9 68 -18 66 -20 -9 -9 -164 29 -266 65 -646 231 -1091 821 -1137
1508 -8 109 -3 129 26 113 17 -9 20 -21 20 -73z m1478 -1627 c18 0 31 -4 28
-8 -6 -10 -136 8 -136 19 0 4 17 3 38 -2 20 -5 52 -9 70 -9z m67 -10 c3 -5 -1
-10 -10 -10 -9 0 -13 5 -10 10 3 6 8 10 10 10 2 0 7 -4 10 -10z m88 -7 c-13
-2 -35 -2 -50 0 -16 2 -5 4 22 4 28 0 40 -2 28 -4z m74 1 c-3 -3 -12 -4 -19
-1 -8 3 -5 6 6 6 11 1 17 -2 13 -5z"/>
<path d="M4149 5776 c-2 -2 -39 -6 -82 -10 -95 -8 -220 -37 -335 -78 -454
-160 -812 -554 -925 -1018 -31 -124 -36 -162 -43 -298 -6 -103 -6 -104 16
-100 20 3 23 10 26 65 24 425 267 836 630 1068 115 74 333 163 442 181 15 2
50 9 77 14 28 5 94 12 148 14 86 3 102 7 123 27 30 28 32 81 4 109 -11 11 -23
20 -27 21 -5 0 -17 2 -29 4 -12 3 -23 3 -25 1z"/>
<path d="M3860 5451 c-247 -84 -449 -228 -599 -429 -100 -133 -194 -354 -220
-517 -12 -79 -12 -317 1 -383 11 -52 15 -56 54 -46 20 5 21 11 19 127 -3 106
3 185 20 262 56 260 210 495 425 647 118 83 193 116 422 182 88 26 116 76 79
144 -27 50 -80 54 -201 13z m145 -51 c12 -20 -15 -37 -78 -50 -136 -26 -304
-102 -419 -188 -80 -60 -80 -46 0 19 105 84 230 153 367 200 86 30 120 35 130
19z m-575 -294 c0 -2 -8 -10 -17 -17 -16 -13 -17 -12 -4 4 13 16 21 21 21 13z"/>
<path d="M4160 5411 c0 -17 6 -21 33 -22 229 -4 447 -75 630 -206 478 -345
605 -991 289 -1478 -203 -314 -559 -502 -927 -490 -288 9 -529 115 -730 320
-96 97 -161 196 -220 330 -38 88 -54 105 -100 105 -40 0 -75 -36 -75 -77 0
-16 22 -74 49 -129 205 -415 609 -673 1061 -675 63 -1 138 2 165 6 202 28 402
109 565 229 72 53 210 194 254 260 79 119 148 279 192 446 19 71 26 322 11
415 -26 167 -113 375 -215 511 -212 284 -517 449 -874 470 -106 7 -108 6 -108
-15z"/>
<path d="M4073 5147 c-41 -8 -53 -14 -53 -28 0 -46 5 -48 119 -42 212 11 390
-47 548 -177 186 -154 281 -343 288 -575 8 -242 -66 -432 -229 -588 -94 -90
-195 -149 -326 -189 -94 -29 -288 -33 -390 -7 -190 49 -334 152 -449 323 -63
93 -94 108 -163 81 -25 -10 -50 -70 -42 -102 10 -40 81 -138 157 -215 143
-145 311 -228 527 -261 180 -27 355 0 525 83 354 171 551 538 503 935 -37 301
-228 564 -502 690 -148 69 -364 99 -513 72z m-548 -1328 c81 -125 211 -237
348 -299 110 -49 189 -64 337 -65 161 0 168 2 355 69 11 4 -2 -5 -29 -19 -110
-60 -313 -90 -466 -70 -179 24 -353 111 -488 243 -78 78 -146 180 -131 199 6
7 15 13 20 13 4 0 29 -32 54 -71z m1105 -264 c0 -2 -10 -9 -22 -15 -22 -11
-22 -10 -4 4 21 17 26 19 26 11z"/>
</g>
</svg>
